<?xml version="1.0" encoding="iso-8859-1"?>
<!-- Generator: Adobe Illustrator 19.0.0, SVG Export Plug-In . SVG Version: 6.00 Build 0)  -->
<svg xmlns="http://www.w3.org/2000/svg" xmlns:xlink="http://www.w3.org/1999/xlink" version="1.1" id="Layer_1" x="0px" y="0px" viewBox="0 0 511.999 511.999" style="enable-background:new 0 0 511.999 511.999;" xml:space="preserve">
<g>
	<g>
		<path d="M267.512,95.128c-112.164,0-203.416,91.252-203.416,203.416c0,4.602,3.731,8.332,8.332,8.332h283.481    c4.603,0,8.332-3.731,8.332-8.332s-3.729-8.332-8.332-8.332h-49.854c-1.288-5.963-3.929-11.424-7.583-16.054l44.851-44.852v8.011    c0,4.602,3.729,8.332,8.332,8.332c4.603,0,8.332-3.731,8.332-8.332v-28.125c0-4.602-3.729-8.332-8.332-8.332h-28.127    c-4.603,0-8.332,3.731-8.332,8.332c0,4.602,3.729,8.332,8.332,8.332h8.011l-45.974,45.974c-5.415-2.801-11.551-4.394-18.055-4.394    c-18.888,0-34.709,13.35-38.544,31.108H117.65c4.335-78.903,69.895-141.758,149.863-141.758s145.527,62.855,149.862,141.758    h-33.69c-4.603,0-8.332,3.731-8.332,8.332s3.729,8.332,8.332,8.332h78.912c4.603,0,8.332-3.731,8.332-8.332    C470.927,186.38,379.676,95.128,267.512,95.128z M267.51,275.769c9.615,0,17.84,5.999,21.175,14.443h-42.348    C249.67,281.767,257.895,275.769,267.51,275.769z M100.966,290.212H80.944c0.802-18.194,4.229-35.717,9.896-52.207l18.625,7.326    C104.669,259.537,101.739,274.595,100.966,290.212z M115.581,229.83l-18.622-7.324c8.237-18.403,19.362-35.239,32.803-49.926    l14.148,14.147C132.374,199.467,122.773,213.991,115.581,229.83z M155.694,174.943l-14.152-14.151    c13.057-11.951,27.817-22.068,43.863-29.955l7.993,18.36C179.649,156.046,166.97,164.732,155.694,174.943z M259.18,131.998    c-17.698,0.875-34.675,4.531-50.513,10.524l-7.995-18.365c18.3-7.038,37.979-11.266,58.508-12.172V131.998z M326.356,142.522    c-15.838-5.994-32.814-9.649-50.513-10.524v-20.013h0.001c20.529,0.905,40.209,5.134,58.508,12.172L326.356,142.522z     M341.625,149.196l7.994-18.36c16.045,7.888,30.806,18.004,43.863,29.955l-14.152,14.152    C368.053,164.732,355.374,156.046,341.625,149.196z M391.113,186.728l14.147-14.148c13.441,14.687,24.566,31.523,32.803,49.926    l-18.622,7.326C412.249,213.991,402.649,199.467,391.113,186.728z M434.058,290.213v-0.001    c-0.772-15.617-3.703-30.674-8.499-44.881l18.625-7.326c5.666,16.491,9.093,34.013,9.896,52.208H434.058z"/>
	</g>
</g>
<g>
	<g>
		<path d="M471.246,24.766H40.754C18.283,24.766,0,43.049,0,65.52v59.227c0,4.602,3.731,8.332,8.332,8.332    c4.601,0,8.332-3.731,8.332-8.332V65.52c0-13.284,10.807-24.09,24.09-24.09h430.492c13.284,0,24.09,10.807,24.09,24.09v284.411    h-52.21c-4.602,0-8.332,3.731-8.332,8.332s3.731,8.332,8.332,8.332h52.21v15.273c0,13.284-10.807,24.09-24.09,24.09h-155.41    H196.164H40.754c-13.284,0-24.09-10.807-24.09-24.09v-15.273h398.688c4.602,0,8.332-3.731,8.332-8.332s-3.731-8.332-8.332-8.332    H16.664V152.522c0-4.602-3.731-8.332-8.332-8.332c-4.601,0-8.332,3.73-8.332,8.332V381.87c0,22.472,18.283,40.754,40.754,40.754    H183.54l-20.494,47.945h-40.034c-4.602,0-8.332,3.731-8.332,8.332s3.731,8.332,8.332,8.332h265.975    c4.602,0,8.332-3.731,8.332-8.332s-3.731-8.332-8.332-8.332h-40.034l-20.494-47.945h142.786c22.472,0,40.754-18.282,40.754-40.754    V65.52C512,43.049,493.717,24.766,471.246,24.766z M330.83,470.568H181.17l14.238-33.31h121.185L330.83,470.568z"/>
	</g>
</g>
<g>
	<g>
		<path d="M262.924,379.679c-1.914-2.906-5.583-4.299-8.952-3.457c-3.517,0.879-6.116,4.048-6.291,7.67    c-0.364,7.534,9.106,11.629,14.33,6.172C264.674,387.282,265.089,382.887,262.924,379.679z"/>
	</g>
</g>
<g>
</g>
<g>
</g>
<g>
</g>
<g>
</g>
<g>
</g>
<g>
</g>
<g>
</g>
<g>
</g>
<g>
</g>
<g>
</g>
<g>
</g>
<g>
</g>
<g>
</g>
<g>
</g>
<g>
</g>
</svg>
